# xmcd CD database file
#
# Track frame offsets:
#	150
#	24529
#	47187
#	69606
#	88801
#	105730
#	122938
#	145816
#	161725
#	185793
#	194140
#	214715
#
# Disc length: 3236 seconds
#
# Revision: 1
# Processed by: cddbd v1.4PL0 Copyright (c) Steve Scherf et al.
# Submitted via: CDex 1.50
#
DISCID=be0ca20c
DTITLE=Jon O'Bergh - Sacred Spaces
DYEAR=2001
DGENRE=New Age
TTITLE0=Ryoan-ji
TTITLE1=Mandala
TTITLE2=Hajj
TTITLE3=The Forgoten Sanctuary
TTITLE4=Balondo Blessing
TTITLE5=Vespers
TTITLE6=Stonehenge
TTITLE7=Canyon de Chelly
TTITLE8=Borobudus
TTITLE9=Delphi
TTITLE10=Hengshan
TTITLE11=Varanasi
EXTD=YEAR: 2001
EXTT0=
EXTT1=
EXTT2=
EXTT3=
EXTT4=
EXTT5=
EXTT6=
EXTT7=
EXTT8=
EXTT9=
EXTT10=
EXTT11=
PLAYORDER=
